<svg xmlns="http://www.w3.org/2000/svg" xmlns:xlink="http://www.w3.org/1999/xlink" version="1.1" width="256" height="256" viewBox="0 0 256 256" xml:space="preserve">
<g style="stroke: none; stroke-width: 0; stroke-dasharray: none; stroke-linecap: butt; stroke-linejoin: miter; stroke-miterlimit: 10; fill: none; fill-rule: nonzero; opacity: 1;" transform="translate(1.4065934065934016 1.4065934065934016) scale(2.81 2.81)">
	<rect x="0" y="0" rx="0" ry="0" width="90" height="90" style="stroke: none; stroke-width: 1; stroke-dasharray: none; stroke-linecap: butt; stroke-linejoin: miter; stroke-miterlimit: 10; fill: rgb(235,226,215); fill-rule: evenodd; opacity: 1;" transform=" matrix(1 0 0 1 0 0) "/>
	<path d="M 61.07 9.004 c 1.269 -0.249 2.582 0.113 3.543 0.978 c 1.041 0.853 1.654 2.12 1.677 3.466 c -0.069 1.373 -0.743 2.645 -1.841 3.474 l -6.56 5.254 c -0.432 0.299 -0.712 0.771 -0.767 1.293 c -0.083 0.454 0.038 0.921 0.332 1.276 c 4.822 5.451 5.814 13.3 2.5 19.78 c -4.19 8.388 -13.534 11.991 -22.547 8.797 c -0.484 -0.171 -1.01 -0.182 -1.5 -0.03 c -0.672 0.213 -0.912 0.539 -1.361 1.151 l -0.044 0.06 l -2.828 3.772 c 0 0 -2.379 2.961 1.375 2.81 c 9.099 -0.358 11.474 -0.358 16.349 -0.03 c 7.94 0.543 11.44 5.72 11.44 9.845 c 0 4.879 -3.112 10.168 -11.448 10.168 c -6.28 -0.155 -10.09 -0.194 -16.586 -0.091 c -0.928 0.015 -1.794 0.04 -2.51 0.06 h -0.001 c -0.684 0.019 -1.23 0.035 -1.563 0.035 c -2.138 0 -4.953 -0.56 -4.987 -3.211 c -0.026 -2.19 1.875 -3.366 3.336 -3.522 c 1.291 -0.138 2.45 0.019 3.724 0.191 h 0 h 0 h 0 h 0 h 0 c 0.759 0.103 1.559 0.211 2.452 0.266 c 0.556 0.033 1.1 0.073 1.658 0.113 h 0 h 0 h 0 h 0 c 1.596 0.115 3.312 0.24 5.79 0.262 c 1.285 0.016 2.281 0.032 3.08 0.046 c 2.091 0.036 2.831 0.048 3.85 -0.046 c 3.75 -0.336 5.504 -1.836 5.504 -4.138 c 0 -2.418 -1.754 -3.797 -5.103 -4.25 c -4.702 -0.638 -7.006 -0.49 -11.182 -0.222 c -1.406 0.09 -3.023 0.194 -5.016 0.287 c -1.828 0.086 -7.362 0.078 -8.065 -4.487 c -0.159 -1.25 -0.22 -3.353 2.427 -6.987 l 2.254 -3.017 c 1.082 -1.474 1.75 -2.698 0.159 -4.685 c 0 0 -1.172 -1.405 -1.565 -1.918 c -3.651 -4.772 -4.543 -12.263 -1.345 -18.379 c 4.741 -9.052 16.233 -12.806 25.159 -7.759 c 0.763 0.431 1.319 0.612 1.97 0.491 c 0.605 -0.099 0.814 -0.502 1.091 -1.035 c 0.062 -0.12 0.128 -0.247 0.202 -0.378 c 0.012 -0.029 0.725 -1.397 1.607 -3.09 l 0.001 -0.001 l 0.001 -0.001 c 0.719 -1.38 1.55 -2.974 2.206 -4.236 C 58.567 10.141 59.72 9.27 61.07 9.004 z M 36.562 48.737 c 5.573 2.716 11.759 0.625 15.793 -7.427 c 4.065 -8.112 2.487 -15.362 -3.129 -18.103 c -7.478 -3.647 -13.814 3.25 -16.198 7.991 c -4.073 8.112 -2.155 14.69 3.448 17.491 L 36.562 48.737 z" style="stroke: none; stroke-width: 1; stroke-dasharray: none; stroke-linecap: butt; stroke-linejoin: miter; stroke-miterlimit: 10; fill: rgb(30,25,21); fill-rule: evenodd; opacity: 1;" transform=" matrix(1 0 0 1 0 0) " stroke-linecap="round"/>
</g>
</svg>