<svg width="50" height="50" viewBox="0 0 50 50" fill="none" xmlns="http://www.w3.org/2000/svg">
<path d="M22.3297 33.0285C22.5662 32.9679 22.8012 32.9024 23.0419 32.8614C23.4505 32.8011 23.8637 32.7755 24.2769 32.7848H38.6179C38.6791 32.7848 38.7404 32.7848 38.8016 32.7848C38.9192 32.7799 38.927 32.7771 38.9184 32.6595C38.9014 32.4367 38.8807 32.2139 38.8536 31.9918C38.7495 31.0798 38.5113 30.1873 38.1464 29.3418C37.3858 27.6166 36.1245 26.396 34.3176 25.729C33.2464 25.3432 32.1153 25.1404 30.9738 25.1296C30.2616 25.1163 29.555 25.1233 28.8464 25.1219C28.8072 25.1219 28.7681 25.1261 28.7289 25.1282C28.6462 25.1153 28.5624 25.1118 28.4789 25.1177H20.2721C20.1824 25.1177 20.0934 25.1177 20.0036 25.1177C19.8462 25.1177 19.842 25.1122 19.8412 24.9618C19.8412 24.6833 19.8412 24.4048 19.8412 24.1263C19.8412 23.8513 19.8192 23.877 20.0912 23.877H27.7119C27.7952 23.877 27.8785 23.8715 27.9618 23.868C27.984 23.871 28.0064 23.8726 28.0288 23.8728C29.1007 23.8687 30.1732 23.893 31.2451 23.8513C32.1621 23.8208 33.0704 23.6668 33.9444 23.3938C35.7178 22.832 37.0582 21.7646 37.9135 20.1347C38.5282 18.965 38.8116 17.709 38.9156 16.407C38.932 16.2037 38.9412 16.2148 38.7205 16.2148H34.549C34.4985 16.2148 34.4486 16.2148 34.3981 16.2197C34.3268 16.2197 34.2556 16.2114 34.1808 16.2114C29.5899 16.2114 24.9988 16.2114 20.4074 16.2114C19.9439 16.2057 19.4805 16.2289 19.0201 16.281C18.0535 16.391 17.1087 16.6395 16.2161 17.0183C14.4705 17.7842 13.2562 19.0326 12.5967 20.7927C12.2282 21.8035 12.0296 22.8661 12.0084 23.939C11.9956 24.3567 12.0013 24.7689 12.0013 25.1839C12.0013 30.7102 12.0013 36.2361 12.0013 41.7615C12.0013 41.8046 12.0013 41.8485 12.0013 41.8924C12.0013 41.9669 12.0312 42.0045 12.1102 41.9996C12.1437 41.9996 12.1772 41.9996 12.2107 41.9996H14.9569C15.0125 41.9996 15.0687 41.994 15.1243 41.9912C15.1684 41.9912 15.2133 41.9961 15.2575 41.9961H19.6482C19.676 41.9961 19.7038 41.9961 19.7323 41.9961C19.8113 42.001 19.8434 41.9634 19.8405 41.8882C19.8405 41.8394 19.8405 41.7413 19.8405 41.7413C19.8405 41.7413 19.8035 37.0764 19.8355 36.532C19.8451 36.1822 19.9053 35.8355 20.0143 35.5022C20.3526 34.3297 21.0684 33.4894 22.2556 33.0654C22.281 33.0543 22.3057 33.042 22.3297 33.0285Z" fill="url(#paint0_linear_2_21)"/>
<path d="M12.0144 18.9737C12.0628 18.9503 12.065 18.9078 12.0778 18.8738C12.2562 18.4289 12.4959 18.0109 12.79 17.6316C13.525 16.668 14.4914 16.0069 15.5974 15.5399C16.2259 15.2849 16.8816 15.1021 17.5517 14.995C18.3451 14.8624 19.1487 14.7988 19.9532 14.8051H32.4878C32.5655 14.8051 32.6438 14.7994 32.7214 14.7959C32.772 14.7959 32.8218 14.8016 32.8724 14.8016H38.7359C38.7694 14.8016 38.8028 14.8016 38.8363 14.8016C38.9004 14.8016 38.9275 14.7732 38.9225 14.7102C38.9225 14.6655 38.9225 14.6209 38.9161 14.577C38.8791 14.1561 38.8299 13.7373 38.7523 13.3221C38.565 12.3265 38.2537 11.3756 37.7403 10.4948C37.5253 10.1254 37.2744 9.77799 36.991 9.45748C36.9253 9.36089 36.8484 9.27241 36.7617 9.19389C35.9783 8.38256 35.0232 7.84759 33.9557 7.49684C32.8567 7.13759 31.7236 7.00509 30.5727 7.00084C29.5892 7.00084 28.6064 7.01217 27.6235 7.01217C22.4957 7.00934 17.3679 7.00532 12.2402 7.00013C11.9866 7.00013 12.0044 6.98666 12.0044 7.23608C12.0044 11.0874 12.0044 14.9386 12.0044 18.7895C11.9961 18.8509 11.9995 18.9134 12.0144 18.9737Z" fill="url(#paint1_linear_2_21)"/>
<path d="M38.7024 34.1739H25.8861C25.1308 34.1739 24.3756 34.1675 23.619 34.1739C23.3153 34.1746 23.0149 34.2359 22.7351 34.3543C22.4554 34.4726 22.2019 34.6456 21.9895 34.8632C21.763 35.0831 21.5837 35.3472 21.4627 35.6392C21.3417 35.9311 21.2816 36.2448 21.2859 36.561C21.2831 38.2993 21.2831 40.0378 21.2859 41.7765C21.2859 42.0188 21.2604 41.9996 21.5112 41.9996H33.1097C33.4097 42.001 33.7095 41.9806 34.0066 41.9385C35.5653 41.7111 36.7543 40.9216 37.5738 39.5699C38.1286 38.6333 38.4963 37.5973 38.6563 36.5198C38.7697 35.8155 38.8405 35.1063 38.9135 34.397C38.9383 34.1334 38.9298 34.1739 38.7024 34.1739Z" fill="url(#paint2_linear_2_21)"/>
<defs>
<linearGradient id="paint0_linear_2_21" x1="16.0385" y1="7" x2="39.1412" y2="15.3616" gradientUnits="userSpaceOnUse">
<stop stop-color="#145DD0"/>
<stop offset="1" stop-color="#04ABEE"/>
</linearGradient>
<linearGradient id="paint1_linear_2_21" x1="16.0385" y1="7" x2="39.1412" y2="15.3616" gradientUnits="userSpaceOnUse">
<stop stop-color="#145DD0"/>
<stop offset="1" stop-color="#04ABEE"/>
</linearGradient>
<linearGradient id="paint2_linear_2_21" x1="16.0385" y1="7" x2="39.1412" y2="15.3616" gradientUnits="userSpaceOnUse">
<stop stop-color="#145DD0"/>
<stop offset="1" stop-color="#04ABEE"/>
</linearGradient>
</defs>
</svg>
