<svg width="142" height="26" viewBox="0 0 142 26" fill="none" xmlns="http://www.w3.org/2000/svg">
<g clip-path="url(#clip0_2561_174)">
<path d="M133.128 21H128.415V5.72729H133.337C134.818 5.72729 136.086 6.03305 137.14 6.64455C138.194 7.25109 139.002 8.1236 139.564 9.2621C140.125 10.3956 140.406 11.7529 140.406 13.3338C140.406 14.9247 140.123 16.2944 139.556 17.4429C138.989 18.5863 138.164 19.4663 137.08 20.0828C135.997 20.6943 134.679 21 133.128 21ZM130.264 19.3594H133.009C134.271 19.3594 135.318 19.1158 136.148 18.6286C136.978 18.1414 137.597 17.4478 138.005 16.548C138.413 15.6481 138.617 14.5767 138.617 13.3338C138.617 12.1009 138.415 11.0394 138.013 10.1495C137.61 9.25464 137.008 8.56856 136.208 8.09129C135.407 7.60904 134.411 7.36792 133.217 7.36792H130.264V19.3594Z" fill="white"/>
<path d="M124.714 5.72729V21H122.924L114.602 9.00854H114.453V21H112.603V5.72729H114.393L122.745 17.7486H122.895V5.72729H124.714Z" fill="white"/>
<path d="M107.061 5.72729H108.91V15.8395C108.91 16.8835 108.664 17.8157 108.172 18.636C107.685 19.4514 106.996 20.0952 106.106 20.5675C105.216 21.0348 104.172 21.2685 102.974 21.2685C101.776 21.2685 100.732 21.0348 99.8419 20.5675C98.952 20.0952 98.2609 19.4514 97.7687 18.636C97.2815 17.8157 97.0379 16.8835 97.0379 15.8395V5.72729H98.8873V15.6904C98.8873 16.4361 99.0514 17.0998 99.3795 17.6815C99.7076 18.2582 100.175 18.7131 100.782 19.0462C101.393 19.3743 102.124 19.5384 102.974 19.5384C103.824 19.5384 104.555 19.3743 105.166 19.0462C105.778 18.7131 106.245 18.2582 106.568 17.6815C106.897 17.0998 107.061 16.4361 107.061 15.6904V5.72729Z" fill="white"/>
<path d="M84.7127 21V5.72729H93.8704V7.36792H86.5621V12.5284H93.1843V14.1691H86.5621V21H84.7127Z" fill="white"/>
<path d="M71.3323 21V5.72729H81.6235V8.38958H74.5613V12.0288H81.094V14.6911H74.5613V18.3377H81.6533V21H71.3323Z" fill="white"/>
<path d="M65.8567 10.1197C65.797 9.51814 65.541 9.05081 65.0886 8.71771C64.6362 8.38462 64.0222 8.21807 63.2466 8.21807C62.7196 8.21807 62.2747 8.29264 61.9117 8.44179C61.5488 8.58597 61.2704 8.78731 61.0765 9.04584C60.8876 9.30436 60.7931 9.59768 60.7931 9.92581C60.7832 10.1992 60.8404 10.4379 60.9646 10.6417C61.0939 10.8456 61.2704 11.022 61.4941 11.1712C61.7178 11.3154 61.9764 11.4421 62.2697 11.5515C62.563 11.6559 62.8762 11.7454 63.2093 11.82L64.5815 12.1481C65.2477 12.2973 65.8592 12.4961 66.416 12.7447C66.9728 12.9933 67.4551 13.299 67.8627 13.662C68.2704 14.0249 68.5861 14.4524 68.8098 14.9446C69.0385 15.4368 69.1553 16.0011 69.1603 16.6375C69.1553 17.5721 68.9167 18.3825 68.4444 19.0686C67.9771 19.7497 67.3009 20.2791 66.416 20.657C65.536 21.0299 64.4746 21.2163 63.2317 21.2163C61.9987 21.2163 60.9249 21.0274 60.0101 20.6495C59.1003 20.2717 58.3894 19.7124 57.8773 18.9716C57.3702 18.2259 57.1042 17.3037 57.0793 16.2049H60.204C60.2388 16.717 60.3855 17.1446 60.644 17.4876C60.9075 17.8257 61.258 18.0817 61.6955 18.2557C62.1379 18.4247 62.6376 18.5093 63.1944 18.5093C63.7413 18.5093 64.2161 18.4297 64.6188 18.2706C65.0264 18.1115 65.3421 17.8903 65.5658 17.6069C65.7896 17.3235 65.9014 16.9979 65.9014 16.63C65.9014 16.287 65.7995 15.9986 65.5957 15.7649C65.3968 15.5313 65.1035 15.3324 64.7157 15.1684C64.3329 15.0043 63.8631 14.8551 63.3063 14.7209L61.6433 14.3033C60.3556 13.9901 59.3389 13.5004 58.5932 12.8342C57.8475 12.168 57.4771 11.2706 57.482 10.1421C57.4771 9.21736 57.7232 8.40947 58.2203 7.71842C58.7225 7.02737 59.411 6.48795 60.286 6.10017C61.161 5.71239 62.1553 5.51849 63.269 5.51849C64.4025 5.51849 65.3918 5.71239 66.237 6.10017C67.0872 6.48795 67.7484 7.02737 68.2207 7.71842C68.693 8.40947 68.9366 9.2099 68.9515 10.1197H65.8567Z" fill="white"/>
<path d="M44.8436 21H41.3834L46.6558 5.72729H50.817L56.0819 21H52.6217L48.7961 9.21735H48.6767L44.8436 21ZM44.6274 14.9968H52.8007V17.5174H44.6274V14.9968Z" fill="white"/>
<path d="M28.3274 21V5.72729H34.4424C35.566 5.72729 36.5032 5.89384 37.2539 6.22694C38.0046 6.56004 38.5689 7.02239 38.9467 7.61401C39.3246 8.20066 39.5135 8.8768 39.5135 9.64242C39.5135 10.239 39.3942 10.7635 39.1555 11.2159C38.9169 11.6634 38.5888 12.0313 38.1711 12.3196C37.7585 12.603 37.2862 12.8044 36.7542 12.9237V13.0728C37.3359 13.0977 37.8803 13.2617 38.3874 13.565C38.8995 13.8683 39.3146 14.2933 39.6328 14.8402C39.951 15.3821 40.1101 16.0284 40.1101 16.7791C40.1101 17.5895 39.9087 18.3129 39.506 18.9492C39.1083 19.5806 38.5192 20.0803 37.7386 20.4482C36.9581 20.8161 35.9961 21 34.8526 21H28.3274ZM31.5564 18.3601H34.1889C35.0888 18.3601 35.745 18.1886 36.1576 17.8455C36.5703 17.4975 36.7766 17.0352 36.7766 16.4585C36.7766 16.0359 36.6747 15.663 36.4709 15.3399C36.267 15.0167 35.9762 14.7632 35.5983 14.5792C35.2255 14.3953 34.7805 14.3033 34.2635 14.3033H31.5564V18.3601ZM31.5564 12.1183H33.9503C34.3927 12.1183 34.7855 12.0412 35.1285 11.8871C35.4765 11.728 35.75 11.5043 35.9488 11.2159C36.1527 10.9276 36.2546 10.5821 36.2546 10.1794C36.2546 9.62751 36.0582 9.18255 35.6655 8.84448C35.2777 8.50641 34.7258 8.33738 34.0099 8.33738H31.5564V12.1183Z" fill="white"/>
<path d="M7.67349 19.3354C7.84914 19.2904 8.02374 19.2418 8.20256 19.2113C8.50611 19.1665 8.81306 19.1475 9.11997 19.1544H19.7733C19.8188 19.1544 19.8643 19.1544 19.9098 19.1544C19.9971 19.1508 20.0029 19.1487 19.9966 19.0613C19.9839 18.8958 19.9685 18.7303 19.9484 18.5653C19.8711 17.8878 19.6941 17.2248 19.423 16.5968C18.858 15.3152 17.921 14.4085 16.5788 13.913C15.783 13.6263 14.9428 13.4757 14.0948 13.4677C13.5657 13.4579 13.0409 13.463 12.5145 13.462C12.4854 13.462 12.4563 13.4651 12.4272 13.4666C12.3658 13.4571 12.3035 13.4545 12.2415 13.4589H6.14501C6.07835 13.4589 6.01222 13.4589 5.94555 13.4589C5.82863 13.4589 5.82545 13.4547 5.82492 13.343C5.82492 13.1361 5.82492 12.9293 5.82492 12.7224C5.82492 12.5181 5.80852 12.5372 6.01063 12.5372H11.6717C11.7336 12.5372 11.7955 12.5331 11.8574 12.5305C11.8739 12.5327 11.8905 12.5339 11.9071 12.5341C12.7033 12.531 13.5001 12.5491 14.2964 12.5181C14.9776 12.4954 15.6523 12.3811 16.3015 12.1783C17.6189 11.7609 18.6146 10.968 19.25 9.75721C19.7066 8.8883 19.9172 7.95525 19.9944 6.98807C20.0066 6.83704 20.0135 6.84532 19.8495 6.84532H16.7507C16.7132 6.84532 16.6761 6.84532 16.6386 6.84894C16.5857 6.84894 16.5327 6.84273 16.4772 6.84273C13.0668 6.84273 9.65626 6.84273 6.24553 6.84273C5.90122 6.8385 5.55697 6.85577 5.21491 6.89445C4.49688 6.9762 3.79505 7.16075 3.13197 7.44218C1.83522 8.01111 0.933156 8.93847 0.443239 10.246C0.169538 10.9969 0.0219601 11.7862 0.00622796 12.5832C-0.00329528 12.8936 0.000937348 13.1998 0.000937348 13.508C0.000937348 17.6133 0.000937348 21.7182 0.000937348 25.8228C0.000937348 25.8549 0.000937348 25.8875 0.000937348 25.92C0.000937348 25.9754 0.0231582 26.0033 0.0818848 25.9997C0.106751 25.9997 0.131617 25.9997 0.156483 25.9997H2.19657C2.23784 25.9997 2.27964 25.9955 2.3209 25.9935C2.35371 25.9935 2.38704 25.9971 2.41984 25.9971H5.68155C5.70218 25.9971 5.72281 25.9971 5.74398 25.9971C5.8027 26.0007 5.82651 25.9728 5.8244 25.9169C5.8244 25.8807 5.8244 25.8078 5.8244 25.8078C5.8244 25.8078 5.79688 22.3425 5.82069 21.938C5.82778 21.6782 5.87249 21.4207 5.95349 21.1731C6.2048 20.3021 6.73651 19.6778 7.61847 19.3628C7.63728 19.3546 7.65565 19.3455 7.67349 19.3354Z" fill="white"/>
<path d="M0.0106911 8.89474C0.0466671 8.87737 0.0482542 8.84578 0.0577773 8.82052C0.19034 8.49005 0.368394 8.17951 0.586836 7.89779C1.13282 7.18192 1.85076 6.69082 2.67238 6.34394C3.13925 6.15452 3.62631 6.01872 4.12412 5.93916C4.71353 5.84061 5.31045 5.79341 5.9081 5.79809H15.2195C15.2772 5.79809 15.3354 5.79388 15.3931 5.79125C15.4306 5.79125 15.4677 5.79546 15.5052 5.79546H19.861C19.8858 5.79546 19.9107 5.79546 19.9356 5.79546C19.9832 5.79546 20.0033 5.7744 19.9996 5.72755C19.9996 5.69439 19.9996 5.66123 19.9948 5.6286C19.9673 5.31593 19.9308 5.00484 19.8731 4.69639C19.734 3.95684 19.5028 3.25045 19.1213 2.59616C18.9617 2.32176 18.7752 2.06365 18.5648 1.82556C18.516 1.75381 18.4588 1.68808 18.3944 1.62974C17.8124 1.02705 17.103 0.629637 16.3099 0.369083C15.4936 0.102212 14.6518 0.00378007 13.7969 0.000621832C13.0663 0.000621832 12.3362 0.00904318 11.6061 0.00904318C7.79684 0.00693769 3.98762 0.00395501 0.178402 9.49454e-05C-0.00994222 9.49454e-05 0.00328436 -0.00990604 0.00328436 0.175377C0.00328436 3.03639 0.00328436 5.89722 0.00328436 8.75788C-0.00287113 8.80356 -0.000358774 8.84998 0.0106911 8.89474Z" fill="white"/>
<path d="M19.8361 20.1863H10.3154C9.75434 20.1863 9.19331 20.1816 8.63122 20.1863C8.40568 20.1869 8.18249 20.2324 7.97467 20.3203C7.76685 20.4082 7.57855 20.5368 7.42074 20.6984C7.25249 20.8618 7.11933 21.0579 7.02946 21.2748C6.93958 21.4917 6.89489 21.7247 6.89813 21.9596C6.89603 23.2509 6.89603 24.5423 6.89813 25.834C6.89813 26.014 6.87918 25.9997 7.06549 25.9997H15.6815C15.9044 26.0007 16.1271 25.9856 16.3478 25.9543C17.5056 25.7854 18.3889 25.1989 18.9977 24.1948C19.4098 23.499 19.683 22.7294 19.8018 21.929C19.8861 21.4058 19.9387 20.8789 19.9929 20.3521C20.0113 20.1562 20.005 20.1863 19.8361 20.1863Z" fill="white"/>
</g>
<defs>
<clipPath id="clip0_2561_174">
<rect width="142" height="26" fill="white"/>
</clipPath>
</defs>
</svg>
