<svg width="20" height="26" viewBox="0 0 20 26" fill="none" xmlns="http://www.w3.org/2000/svg">
<path d="M7.67349 19.3354C7.84914 19.2904 8.02374 19.2418 8.20256 19.2113C8.50611 19.1665 8.81306 19.1475 9.11997 19.1544H19.7733C19.8188 19.1544 19.8643 19.1544 19.9098 19.1544C19.9971 19.1508 20.0029 19.1487 19.9966 19.0613C19.9839 18.8958 19.9685 18.7303 19.9484 18.5653C19.8711 17.8878 19.6941 17.2248 19.423 16.5968C18.858 15.3152 17.921 14.4085 16.5788 13.913C15.783 13.6263 14.9428 13.4757 14.0948 13.4677C13.5657 13.4579 13.0409 13.463 12.5145 13.462C12.4854 13.462 12.4563 13.4651 12.4272 13.4666C12.3658 13.4571 12.3035 13.4545 12.2415 13.4589H6.14501C6.07835 13.4589 6.01222 13.4589 5.94555 13.4589C5.82863 13.4589 5.82545 13.4547 5.82492 13.343C5.82492 13.1361 5.82492 12.9293 5.82492 12.7224C5.82492 12.5181 5.80852 12.5372 6.01063 12.5372H11.6717C11.7336 12.5372 11.7955 12.5331 11.8574 12.5305C11.8739 12.5327 11.8905 12.5339 11.9071 12.5341C12.7033 12.531 13.5001 12.5491 14.2964 12.5181C14.9776 12.4954 15.6523 12.3811 16.3015 12.1783C17.6189 11.7609 18.6146 10.968 19.25 9.75721C19.7066 8.8883 19.9172 7.95525 19.9944 6.98807C20.0066 6.83704 20.0135 6.84532 19.8495 6.84532H16.7507C16.7132 6.84532 16.6761 6.84532 16.6386 6.84894C16.5857 6.84894 16.5327 6.84273 16.4772 6.84273C13.0668 6.84273 9.65626 6.84273 6.24553 6.84273C5.90122 6.8385 5.55697 6.85577 5.21491 6.89445C4.49688 6.9762 3.79505 7.16075 3.13197 7.44218C1.83522 8.01111 0.933156 8.93847 0.443239 10.246C0.169538 10.9969 0.0219601 11.7862 0.00622796 12.5832C-0.00329528 12.8936 0.000937348 13.1998 0.000937348 13.508C0.000937348 17.6133 0.000937348 21.7182 0.000937348 25.8228C0.000937348 25.8549 0.000937348 25.8875 0.000937348 25.92C0.000937348 25.9754 0.0231582 26.0033 0.0818848 25.9997C0.106751 25.9997 0.131617 25.9997 0.156483 25.9997H2.19657C2.23784 25.9997 2.27964 25.9955 2.3209 25.9935C2.35371 25.9935 2.38704 25.9971 2.41984 25.9971H5.68155C5.70218 25.9971 5.72281 25.9971 5.74398 25.9971C5.8027 26.0007 5.82651 25.9728 5.8244 25.9169C5.8244 25.8807 5.8244 25.8078 5.8244 25.8078C5.8244 25.8078 5.79688 22.3425 5.82069 21.938C5.82778 21.6782 5.87249 21.4207 5.95349 21.1731C6.2048 20.3021 6.73651 19.6778 7.61847 19.3628C7.63728 19.3546 7.65565 19.3455 7.67349 19.3354Z" fill="white"/>
<path d="M0.0106911 8.89474C0.0466671 8.87737 0.0482542 8.84578 0.0577773 8.82052C0.19034 8.49005 0.368394 8.17951 0.586836 7.89779C1.13282 7.18192 1.85076 6.69082 2.67238 6.34394C3.13925 6.15452 3.62631 6.01872 4.12412 5.93916C4.71353 5.84061 5.31045 5.79341 5.9081 5.79809H15.2195C15.2772 5.79809 15.3354 5.79388 15.3931 5.79125C15.4306 5.79125 15.4677 5.79546 15.5052 5.79546H19.861C19.8858 5.79546 19.9107 5.79546 19.9356 5.79546C19.9832 5.79546 20.0033 5.7744 19.9996 5.72755C19.9996 5.69439 19.9996 5.66123 19.9948 5.6286C19.9673 5.31593 19.9308 5.00484 19.8731 4.69639C19.734 3.95684 19.5028 3.25045 19.1213 2.59616C18.9617 2.32176 18.7752 2.06365 18.5648 1.82556C18.516 1.75381 18.4588 1.68808 18.3944 1.62974C17.8124 1.02705 17.103 0.629637 16.3099 0.369083C15.4936 0.102212 14.6518 0.00378007 13.7969 0.000621832C13.0663 0.000621832 12.3362 0.00904318 11.6061 0.00904318C7.79684 0.00693769 3.98762 0.00395501 0.178402 9.49454e-05C-0.00994222 9.49454e-05 0.00328436 -0.00990604 0.00328436 0.175377C0.00328436 3.03639 0.00328436 5.89722 0.00328436 8.75788C-0.00287113 8.80356 -0.000358774 8.84998 0.0106911 8.89474Z" fill="white"/>
<path d="M19.836 20.1863H10.3153C9.75427 20.1863 9.19324 20.1816 8.63115 20.1863C8.40561 20.1869 8.18242 20.2324 7.9746 20.3203C7.76678 20.4082 7.57848 20.5368 7.42067 20.6984C7.25242 20.8618 7.11926 21.0579 7.02939 21.2748C6.93951 21.4917 6.89482 21.7247 6.89806 21.9596C6.89596 23.2509 6.89596 24.5423 6.89806 25.834C6.89806 26.014 6.87911 25.9997 7.06542 25.9997H15.6814C15.9043 26.0007 16.127 25.9856 16.3477 25.9543C17.5055 25.7854 18.3888 25.1989 18.9976 24.1948C19.4097 23.499 19.6829 22.7294 19.8017 21.929C19.886 21.4058 19.9386 20.8789 19.9928 20.3521C20.0112 20.1562 20.0049 20.1863 19.836 20.1863Z" fill="white"/>
</svg>
