<svg width="192" height="35" viewBox="0 0 192 35" fill="none" xmlns="http://www.w3.org/2000/svg">
<path d="M179.211 28.9777H172.866V8.41827H179.492C181.486 8.41827 183.193 8.82986 184.612 9.65305C186.03 10.4695 187.118 11.6441 187.874 13.1767C188.63 14.7026 189.009 16.5296 189.009 18.6578C189.009 20.7994 188.627 22.6432 187.864 24.1892C187.101 25.7285 185.99 26.9131 184.531 27.7429C183.072 28.5661 181.299 28.9777 179.211 28.9777ZM175.356 26.7692H179.05C180.75 26.7692 182.159 26.4412 183.276 25.7854C184.394 25.1295 185.227 24.1959 185.776 22.9846C186.325 21.7732 186.599 20.331 186.599 18.6578C186.599 16.9981 186.328 15.5692 185.786 14.3713C185.244 13.1666 184.434 12.2431 183.357 11.6006C182.279 10.9514 180.937 10.6268 179.331 10.6268H175.356V26.7692Z" fill="#34373D"/>
<path d="M167.884 8.41827V28.9777H165.475L154.272 12.8353H154.071V28.9777H151.581V8.41827H153.991L165.234 24.6008H165.435V8.41827H167.884Z" fill="#34373D"/>
<path d="M144.12 8.41827H146.61V22.0309C146.61 23.4363 146.278 24.6912 145.616 25.7954C144.96 26.893 144.033 27.7597 142.835 28.3955C141.637 29.0246 140.232 29.3391 138.619 29.3391C137.006 29.3391 135.6 29.0246 134.403 28.3955C133.205 27.7597 132.274 26.893 131.612 25.7954C130.956 24.6912 130.628 23.4363 130.628 22.0309V8.41827H133.118V21.8301C133.118 22.834 133.338 23.7274 133.78 24.5105C134.222 25.2868 134.851 25.8992 135.667 26.3476C136.491 26.7893 137.474 27.0101 138.619 27.0101C139.763 27.0101 140.747 26.7893 141.57 26.3476C142.393 25.8992 143.022 25.2868 143.457 24.5105C143.899 23.7274 144.12 22.834 144.12 21.8301V8.41827Z" fill="#34373D"/>
<path d="M114.036 28.9777V8.41827H126.364V10.6268H116.526V17.5737H125.44V19.7822H116.526V28.9777H114.036Z" fill="#34373D"/>
<path d="M96.0243 28.9777V8.41827H109.878V12.0021H100.371V16.9011H109.165V20.4849H100.371V25.3939H109.918V28.9777H96.0243Z" fill="#34373D"/>
<path d="M88.6533 14.3311C88.573 13.5213 88.2283 12.8922 87.6193 12.4438C87.0103 11.9954 86.1838 11.7712 85.1397 11.7712C84.4303 11.7712 83.8313 11.8716 83.3428 12.0724C82.8542 12.2665 82.4794 12.5375 82.2184 12.8856C81.9641 13.2336 81.837 13.6284 81.837 14.0701C81.8236 14.4382 81.9005 14.7595 82.0679 15.0339C82.2419 15.3082 82.4794 15.5458 82.7806 15.7466C83.0818 15.9407 83.4298 16.1114 83.8246 16.2586C84.2195 16.3991 84.6411 16.5196 85.0895 16.62L86.9367 17.0617C87.8335 17.2625 88.6566 17.5302 89.4062 17.8648C90.1558 18.1994 90.8049 18.611 91.3537 19.0996C91.9025 19.5881 92.3275 20.1637 92.6287 20.8262C92.9365 21.4888 93.0938 22.2484 93.1005 23.105C93.0938 24.3632 92.7726 25.4541 92.1368 26.3777C91.5077 27.2946 90.5975 28.0073 89.4062 28.5159C88.2216 29.0179 86.7928 29.2689 85.1196 29.2689C83.4599 29.2689 82.0143 29.0145 80.7829 28.5059C79.5582 27.9973 78.6011 27.2444 77.9118 26.2472C77.2292 25.2433 76.8711 24.0018 76.8376 22.5228H81.0439C81.0907 23.2121 81.2882 23.7877 81.6362 24.2495C81.9909 24.7046 82.4627 25.0492 83.0517 25.2835C83.6473 25.511 84.3199 25.6248 85.0695 25.6248C85.8056 25.6248 86.4448 25.5177 86.9869 25.3035C87.5356 25.0894 87.9606 24.7916 88.2618 24.4101C88.563 24.0286 88.7135 23.5903 88.7135 23.095C88.7135 22.6332 88.5763 22.2451 88.3019 21.9305C88.0342 21.616 87.6394 21.3483 87.1174 21.1274C86.602 20.9065 85.9696 20.7058 85.22 20.5251L82.9814 19.9629C81.248 19.5413 79.8794 18.8821 78.8755 17.9853C77.8716 17.0885 77.373 15.8805 77.3797 14.3613C77.373 13.1164 77.7043 12.0289 78.3736 11.0987C79.0495 10.1684 79.9764 9.44225 81.1543 8.92023C82.3322 8.39822 83.6707 8.13721 85.1698 8.13721C86.6957 8.13721 88.0275 8.39822 89.1653 8.92023C90.3097 9.44225 91.1998 10.1684 91.8356 11.0987C92.4714 12.0289 92.7993 13.1064 92.8194 14.3311H88.6533Z" fill="#34373D"/>
<path d="M60.3665 28.9777H55.7085L62.8059 8.41827H68.4076L75.495 28.9777H70.837L65.6871 13.1164H65.5264L60.3665 28.9777ZM60.0754 20.8965H71.0779V24.2896H60.0754V20.8965Z" fill="#34373D"/>
<path d="M38.1331 28.9777V8.41827H46.3649C47.8774 8.41827 49.1389 8.64247 50.1495 9.09087C51.1601 9.53927 51.9197 10.1617 52.4283 10.9581C52.9369 11.7478 53.1912 12.658 53.1912 13.6886C53.1912 14.4917 53.0306 15.1978 52.7094 15.8068C52.3881 16.4092 51.9464 16.9044 51.3843 17.2926C50.8288 17.674 50.193 17.9451 49.4769 18.1057V18.3065C50.2599 18.3399 50.9927 18.5608 51.6754 18.969C52.3647 19.3773 52.9235 19.9495 53.3519 20.6857C53.7802 21.4152 53.9943 22.2852 53.9943 23.2958C53.9943 24.3866 53.7233 25.3604 53.1812 26.217C52.6458 27.067 51.8527 27.7396 50.802 28.2348C49.7513 28.7301 48.4563 28.9777 46.917 28.9777H38.1331ZM42.4799 25.424H46.0235C47.2349 25.424 48.1183 25.1931 48.6738 24.7313C49.2293 24.2628 49.507 23.6404 49.507 22.8641C49.507 22.2952 49.3698 21.7933 49.0954 21.3583C48.821 20.9233 48.4295 20.5819 47.9209 20.3343C47.4189 20.0867 46.82 19.9629 46.1239 19.9629H42.4799V25.424ZM42.4799 17.0215H45.7023C46.2979 17.0215 46.8267 16.9178 47.2884 16.7103C47.7569 16.4962 48.125 16.195 48.3927 15.8068C48.6671 15.4187 48.8043 14.9535 48.8043 14.4114C48.8043 13.6686 48.5399 13.0696 48.0112 12.6145C47.4892 12.1594 46.7463 11.9318 45.7826 11.9318H42.4799V17.0215Z" fill="#34373D"/>
<path d="M10.3297 26.0285C10.5662 25.9679 10.8012 25.9024 11.0419 25.8614C11.4505 25.8011 11.8637 25.7755 12.2769 25.7848H26.6179C26.6791 25.7848 26.7404 25.7848 26.8016 25.7848C26.9192 25.7799 26.927 25.7771 26.9184 25.6595C26.9014 25.4367 26.8807 25.2139 26.8536 24.9918C26.7495 24.0798 26.5113 23.1873 26.1464 22.3418C25.3858 20.6166 24.1245 19.396 22.3176 18.729C21.2464 18.3432 20.1153 18.1404 18.9738 18.1296C18.2616 18.1163 17.555 18.1233 16.8464 18.1219C16.8072 18.1219 16.7681 18.1261 16.7289 18.1282C16.6462 18.1153 16.5624 18.1118 16.4789 18.1177H8.27213C8.18239 18.1177 8.09337 18.1177 8.00363 18.1177C7.84623 18.1177 7.84196 18.1122 7.84125 17.9618C7.84125 17.6833 7.84125 17.4048 7.84125 17.1263C7.84125 16.8513 7.81917 16.877 8.09123 16.877H15.7119C15.7952 16.877 15.8785 16.8715 15.9618 16.868C15.984 16.871 16.0064 16.8726 16.0288 16.8728C17.1007 16.8687 18.1732 16.893 19.2451 16.8513C20.1621 16.8208 21.0704 16.6668 21.9444 16.3938C23.7178 15.832 25.0582 14.7646 25.9135 13.1347C26.5282 11.965 26.8116 10.709 26.9156 9.40701C26.932 9.20371 26.9412 9.21485 26.7205 9.21485H22.549C22.4985 9.21485 22.4486 9.21485 22.3981 9.21972C22.3268 9.21972 22.2556 9.21137 22.1808 9.21137C17.5899 9.21137 12.9988 9.21137 8.40745 9.21137C7.94395 9.20567 7.48054 9.22892 7.02007 9.28099C6.05349 9.39104 5.10873 9.63948 4.21611 10.0183C2.47049 10.7842 1.25617 12.0326 0.596668 13.7927C0.228225 14.8035 0.0295617 15.8661 0.00838379 16.939C-0.00443596 17.3567 0.00126182 17.7689 0.00126182 18.1839C0.00126182 23.7102 0.00126182 29.2361 0.00126182 34.7615C0.00126182 34.8046 0.00126182 34.8485 0.00126182 34.8924C0.00126182 34.9669 0.0311745 35.0045 0.11023 34.9996C0.143703 34.9996 0.177177 34.9996 0.210651 34.9996H2.95692C3.01248 34.9996 3.06874 34.994 3.12429 34.9912C3.16845 34.9912 3.21332 34.9961 3.25748 34.9961H7.64824C7.67601 34.9961 7.70379 34.9961 7.73228 34.9961C7.81133 35.001 7.84338 34.9634 7.84053 34.8882C7.84053 34.8394 7.84053 34.7413 7.84053 34.7413C7.84053 34.7413 7.8035 30.0764 7.83555 29.532C7.84508 29.1822 7.90527 28.8355 8.01431 28.5022C8.35261 27.3297 9.06838 26.4894 10.2556 26.0654C10.281 26.0543 10.3057 26.042 10.3297 26.0285ZM10.1481 26.0549C10.1693 26.0389 10.1937 26.0275 10.2197 26.0212C10.1938 26.0275 10.1699 26.0389 10.1488 26.0549H10.1481Z" fill="url(#paint0_linear_1481_2697)"/>
<path d="M0.0143919 11.9737C0.0628211 11.9503 0.0649576 11.9078 0.0777771 11.8738C0.256227 11.4289 0.495915 11.0109 0.789971 10.6316C1.52495 9.66797 2.4914 9.00687 3.59744 8.53991C4.22591 8.28493 4.88157 8.10212 5.5517 7.99502C6.34513 7.86236 7.14868 7.79882 7.95322 7.80512H20.4878C20.5655 7.80512 20.6438 7.79945 20.7214 7.79591C20.772 7.79591 20.8218 7.80158 20.8724 7.80158H26.7359C26.7694 7.80158 26.8028 7.80158 26.8363 7.80158C26.9004 7.80158 26.9275 7.77323 26.9225 7.71017C26.9225 7.66553 26.9225 7.62089 26.9161 7.57696C26.8791 7.15606 26.8299 6.73729 26.7523 6.32206C26.565 5.32651 26.2537 4.3756 25.7403 3.49484C25.5253 3.12545 25.2744 2.77799 24.991 2.45748C24.9253 2.36089 24.8484 2.27241 24.7617 2.19389C23.9783 1.38256 23.0232 0.847588 21.9557 0.496842C20.8567 0.137593 19.7236 0.00508855 18.5727 0.000837081C17.5892 0.000837081 16.6064 0.0121735 15.6235 0.0121735C10.4957 0.0093392 5.36795 0.00532405 0.240157 0.000127811C-0.0133838 0.000127811 0.00442125 -0.0133351 0.00442125 0.236085C0.00442125 4.08744 0.00442125 7.93857 0.00442125 11.7895C-0.00386499 11.8509 -0.000482966 11.9134 0.0143919 11.9737Z" fill="url(#paint1_linear_1481_2697)"/>
<path d="M26.7024 27.1739H13.8861C13.1308 27.1739 12.3756 27.1675 11.619 27.1739C11.3153 27.1746 11.0149 27.2359 10.7351 27.3543C10.4554 27.4726 10.2019 27.6456 9.98946 27.8632C9.76297 28.0831 9.58372 28.3472 9.46273 28.6392C9.34175 28.9311 9.28158 29.2448 9.28595 29.561C9.28311 31.2993 9.28311 33.0378 9.28595 34.7765C9.28595 35.0188 9.26044 34.9996 9.51124 34.9996H21.1097C21.4097 35.001 21.7095 34.9806 22.0066 34.9385C23.5653 34.7111 24.7543 33.9216 25.5738 32.5699C26.1286 31.6333 26.4963 30.5973 26.6563 29.5198C26.7697 28.8155 26.8405 28.1063 26.9135 27.397C26.9383 27.1334 26.9298 27.1739 26.7024 27.1739Z" fill="url(#paint2_linear_1481_2697)"/>
<defs>
<linearGradient id="paint0_linear_1481_2697" x1="4.03846" y1="5.99711e-07" x2="27.1412" y2="8.36156" gradientUnits="userSpaceOnUse">
<stop stop-color="#145DD0"/>
<stop offset="1" stop-color="#04ABEE"/>
</linearGradient>
<linearGradient id="paint1_linear_1481_2697" x1="4.03846" y1="5.99711e-07" x2="27.1412" y2="8.36156" gradientUnits="userSpaceOnUse">
<stop stop-color="#145DD0"/>
<stop offset="1" stop-color="#04ABEE"/>
</linearGradient>
<linearGradient id="paint2_linear_1481_2697" x1="4.03846" y1="5.99711e-07" x2="27.1412" y2="8.36156" gradientUnits="userSpaceOnUse">
<stop stop-color="#145DD0"/>
<stop offset="1" stop-color="#04ABEE"/>
</linearGradient>
</defs>
</svg>